<svg width="29" height="35" viewBox="0 0 29 35" fill="none" xmlns="http://www.w3.org/2000/svg">
<path d="M29 14.3078V34.0299H23.4133V29.6757C21.5088 32.6212 17.8266 34.286 12.7478 34.286C5.38355 34.286 0.812622 30.316 0.812622 24.6811C0.812622 19.4304 4.11385 15.2043 13.7636 15.2043H23.0324V14.0517C23.0324 9.05713 20.1121 6.23969 14.3984 6.23969C10.5893 6.23969 6.65325 7.64842 4.11385 9.69746L1.70141 5.21517C5.00264 2.5258 9.82751 0.989014 15.0333 0.989014C24.0482 1.11708 29 5.4713 29 14.3078ZM23.1594 24.0408V19.4304H14.1445C8.30387 19.4304 6.65325 21.7356 6.65325 24.425C6.65325 27.6266 9.31963 29.6757 13.7636 29.6757C18.2075 29.8037 21.7627 27.8827 23.1594 24.0408Z" fill="#FF6060"/>
</svg>
