<svg width="29" height="34" viewBox="0 0 29 34" fill="none" xmlns="http://www.w3.org/2000/svg">
<path d="M0.895752 29.5722L3.30819 24.9619C6.10153 26.8829 10.4185 28.2916 14.6085 28.2916C20.0683 28.2916 22.2267 26.6267 22.2267 23.8093C22.2267 16.5096 1.78454 22.7848 1.78454 9.85016C1.78454 3.95915 6.99032 0.117188 15.2434 0.117188C19.4334 0.117188 24.2583 1.26978 27.0516 3.06269L24.5122 7.67305C21.5919 5.75207 18.4176 5.11174 15.2434 5.11174C10.1646 5.11174 7.62517 7.03272 7.62517 9.59403C7.62517 17.278 28.0674 11.0027 28.0674 23.6812C28.0674 29.5722 22.7346 33.2861 14.1007 33.2861C8.89487 33.4142 3.56213 31.7493 0.895752 29.5722Z" fill="#FF6060"/>
</svg>
